inDegrees=yes
name=ik_orientation_Tpose_Bogen
DataType=double
version=3
OpenSimVersion=4.3-2021-08-27-4bc7ad9
endheader
time	pelvis_tilt	pelvis_list	pelvis_rotation	pelvis_tx	pelvis_ty	pelvis_tz	hip_flexion_r	hip_adduction_r	hip_rotation_r	knee_angle_r	knee_angle_r_beta	ankle_angle_r	subtalar_angle_r	mtp_angle_r	hip_flexion_l	hip_adduction_l	hip_rotation_l	knee_angle_l	knee_angle_l_beta	ankle_angle_l	subtalar_angle_l	mtp_angle_l	lumbar_extension	lumbar_bending	lumbar_rotation	arm_flex_r	arm_add_r	arm_rot_r	elbow_flex_r	pro_sup_r	wrist_flex_r	wrist_dev_r	arm_flex_l	arm_add_l	arm_rot_l	elbow_flex_l	pro_sup_l	wrist_flex_l	wrist_dev_l
5	-0.1262152527064926	-0.8416219264180378	147.5604305098214	0	0.9399999999999999	0	4.844008852742844	-2.485236918633238	0	10.36553527548108	0.1809127192887623	-1.517949969933617	0	0	4.844008852742844	-2.485236918633238	0	10.36553527548108	0.1809127192887623	-1.517949969933617	0	0	2.202448301511597	-0.07803220603915285	-3.674916875428007	0	-0.5908460065872289	0	14.19704645867544	13.49228461977258	0	0	80.4113621445576	36.70693056642804	10.61487515772676	0.001560262071261425	13.49228461977258	0	0
5.01	-0.1087509366361849	-0.8495483584086094	147.5659886197393	0	0.9399999999999999	0	4.860704995115001	-2.493337411095678	0	10.40181153111661	0.1815458593898974	-1.522722419056632	0	0	4.860704995115001	-2.493337411095678	0	10.40181153111661	0.1815458593898974	-1.522722419056632	0	0	2.20011186420658	-0.0632903707469593	-3.661458730881667	0	-0.5930812163465332	0	14.24928956722507	13.54279754086733	0	0	80.16046070737248	36.94933613999999	10.53351157531274	0.001565086806246429	13.54279754086733	0	0
5.02	-0.1272338196311725	-0.851058446096107	147.5854546860203	0	0.9399999999999999	0	43.69135978608848	-9.923643398077903	0	59.84529147455156	1.044497378046617	-4.810643893275137	0	0	43.69135978608848	-9.923643398077903	0	59.84529147455156	1.044497378046617	-4.810643893275137	0	0	2.194153923272059	-0.07863837453349648	-3.691136040590409	0	-11.20677691788511	0	75.37168872461604	45.30765491743954	0	0	79.55554057409977	37.34519703044521	10.72901404121266	0.00157540383760633	45.30765491743954	0	0
5.03	-0.1457398665512849	-0.880732453498689	147.5648535709439	0	0.9399999999999999	0	43.70148355365941	-9.925783618360708	0	59.84624201597448	1.044513968124124	-4.817541781138901	0	0	43.70148355365941	-9.925783618360708	0	59.84624201597448	1.044513968124124	-4.817541781138901	0	0	2.196535944076542	-0.1278302265689429	-3.646995506662827	0	-11.22137526273201	0	75.36881558302237	45.30084326039032	0	0	78.97250868856038	37.66034775078159	10.84324011278227	0.001584338869264712	45.30084326039032	0	0
5.04	-0.1288197842556062	-0.8591141428799828	147.5704674096981	0	0.9399999999999999	0	43.70196359933836	-9.925879657791505	0	59.84628657996522	1.04451474591249	-4.817849896863763	0	0	43.70196359933836	-9.925879657791505	0	59.84628657996522	1.04451474591249	-4.817849896863763	0	0	2.190837029980778	-0.06318987470530348	-3.655614068321244	0	-11.22209020026041	0	75.36867933937309	45.30053541008797	0	0	78.54341688058571	37.91366036726502	11.1118620400004	0.001592092853322634	45.30053541008797	0	0
5.05	-0.1196899419829311	-0.8665379601487275	147.5807957507393	0	0.9399999999999999	0	43.70228794004826	-9.925944363447144	0	59.84631674258104	1.044515272349447	-4.818057339140855	0	0	43.70228794004826	-9.925944363447144	0	59.84631674258104	1.044515272349447	-4.818057339140855	0	0	2.20529865138986	-0.06025675134881531	-3.661478530103415	0	-11.22257390041207	0	75.36858728684894	45.30032787844501	0	0	78.24283651819817	37.93682774435024	11.04692887688684	0.001597215873344388	45.30032787844501	0	0
5.06	-0.1197318651750735	-0.8752745210063868	147.5882826781881	0	0.9399999999999999	0	43.70244372327091	-9.925975215965005	0	59.84633131049564	1.044515526607522	-4.818156101120887	0	0	43.70244372327091	-9.925975215965005	0	59.84633131049564	1.044515526607522	-4.818156101120887	0	0	2.209402237765065	-0.08269739935551418	-3.657257486846511	0	-11.22280716021626	0	75.36854307319757	45.30022879212081	0	0	78.01463793366588	38.04476714179715	10.8377882606038	0.001600974535366284	45.30022879212081	0	0
5.07	-0.1177490671367112	-0.8990059968572128	147.5947310555301	0	0.9399999999999999	0	43.70289539112184	-9.926065069445398	0	59.84637338238309	1.04451626090048	-4.818443947854112	0	0	43.70289539112184	-9.926065069445398	0	59.84637338238309	1.04451626090048	-4.818443947854112	0	0	2.233344411879656	-0.1040430750081478	-3.639264835534927	0	-11.2234816186237	0	75.36841488325656	45.29994042999326	0	0	78.11948191229821	38.00561679816762	10.45118956255674	0.001599036018298276	45.29994042999326	0	0
5.08	-0.1366405073116739	-0.9063595597536588	147.5973747385556	0	0.9399999999999999	0	43.71292879421584	-9.928113551641014	0	59.84731563699503	1.044532706345851	-4.824963256855039	0	0	43.71292879421584	-9.928113551641014	0	59.84731563699503	1.044532706345851	-4.824963256855039	0	0	2.230761510275679	-0.1299176896708396	-3.629878429850868	0	-11.23806770259302	0	75.36556734801772	45.29335982472602	0	0	77.50744768699244	38.38084969587682	10.61546987466645	0.001607705048595012	45.29335982472602	0	0
5.09	-0.135007676375206	-0.9095501386842103	147.6068405833645	0	0.9399999999999999	0	43.72275266176615	-9.930078942284366	0	59.84824669210823	1.044548956323094	-4.831174907004592	0	0	43.72275266176615	-9.930078942284366	0	59.84824669210823	1.044548956323094	-4.831174907004592	0	0	2.235785750263748	-0.1307360624668951	-3.6248998484978	0	-11.25246706142418	0	75.36277925708698	45.28701473451832	0	0	76.84722163934731	38.69733415642593	10.71654167908068	0.001617280007375297	45.28701473451832	0	0
5.1	-0.101292660705107	-0.9244180941792765	147.6244758417934	0	0.9399999999999999	0	43.72319561531044	-9.930163640886036	0	59.84828802923393	1.04454967779204	-4.831441677791764	0	0	43.72319561531044	-9.930163640886036	0	59.84828802923393	1.04454967779204	-4.831441677791764	0	0	2.271162667465026	-0.1108259210646896	-3.621561513340816	0	-11.25313308372305	0	75.36265353882307	45.2867397062544	0	0	76.90851405013048	38.60637647206551	10.22115147850599	0.001613843547009381	45.2867397062544	0	0
5.11	-0.1033002148518579	-0.9359940502719669	147.6400367671119	0	0.9399999999999999	0	43.72358769013643	-9.930238459899204	0	59.84832465758753	1.04455031707741	-4.831677197650738	0	0	43.72358769013643	-9.930238459899204	0	59.84832465758753	1.04455031707741	-4.831677197650738	0	0	2.276431059559009	-0.1203825961993514	-3.626524371821422	0	-11.25372311883617	0	75.36254226077284	45.28649665055202	0	0	76.94655167681229	38.65972245442583	9.802498305214771	0.001609596934755512	45.28649665055202	0	0
5.12	-0.1141552401998351	-0.9349456981243479	147.6391157047781	0	0.9399999999999999	0	43.73349088949307	-9.932191148110093	0	59.84926176117276	1.044566672620405	-4.837796741047429	0	0	43.73349088949307	-9.932191148110093	0	59.84926176117276	1.044566672620405	-4.837796741047429	0	0	2.26737771351845	-0.1276897947678782	-3.612843105825216	0	-11.26822547050975	0	75.35973164665648	45.28015817298289	0	0	76.31832435069219	38.90210747980064	9.916064100397906	0.001616255962055423	45.28015817298289	0	0
5.13	-0.1104018935157984	-0.9186016185093153	147.6620924323366	0	0.9399999999999999	0	43.74033112505368	-9.933635511695314	0	59.84988880136832	1.04457761653636	-4.842379982026157	0	0	43.74033112505368	-9.933635511695314	0	59.84988880136832	1.04457761653636	-4.842379982026157	0	0	2.262892129971075	-0.08786990687689972	-3.630739873647262	0	-11.27787262074177	0	75.3577903970005	45.27552533784601	0	0	76.31104748485784	38.77686848244371	9.139114393331969	0.001611073598327032	45.27552533784601	0	0
5.14	-0.120105460406318	-0.9383699115092773	147.6593890444849	0	0.9399999999999999	0	43.74994890060871	-9.93543064779268	0	59.85080992613414	1.044593693196345	-4.847905871954504	0	0	43.74994890060871	-9.93543064779268	0	59.85080992613414	1.044593693196345	-4.847905871954504	0	0	2.262025058614566	-0.123096854100462	-3.616137201156945	0	-11.29222651840147	0	75.3550607276552	45.26961984006013	0	0	75.60628311189274	39.05219589567879	9.229283248557769	0.001614758334514232	45.26961984006013	0	0
5.15	-0.122935800521737	-0.9447549239248024	147.6597119195787	0	0.9399999999999999	0	43.7592193188097	-9.937143220881804	0	59.85169358760761	1.04460911599853	-4.853140988138947	0	0	43.7592193188097	-9.937143220881804	0	59.85169358760761	1.04460911599853	-4.853140988138947	0	0	2.253350363765685	-0.1269855502218521	-3.609702488810083	0	-11.30602577369875	0	75.35242964016992	45.26396118080275	0	0	74.9518133316687	39.34388673814972	9.302668338877133	0.001616992285264017	45.26396118080275	0	0
5.16	-0.09785897379573411	-0.9424050308446472	147.6887047558671	0	0.9399999999999999	0	43.77083895306433	-9.939089850331408	0	59.85284006796223	1.044629125855528	-4.858959006550681	0	0	43.77083895306433	-9.939089850331408	0	59.85284006796223	1.044629125855528	-4.858959006550681	0	0	2.27314496808626	-0.08965297069889705	-3.645738098725611	0	-11.32412988432178	0	75.3491316619572	45.25740367679235	0	0	73.81186208525673	39.43485199553064	9.741740926256691	0.001627767293522946	45.25740367679235	0	0
5.17	-0.1064997766564886	-0.975511114865626	147.6829966928352	0	0.9399999999999999	0	43.779955963403	-9.94054964378283	0	59.85375519483514	1.044645097832533	-4.863266675723744	0	0	43.779955963403	-9.94054964378283	0	59.85375519483514	1.044645097832533	-4.863266675723744	0	0	2.270555932294336	-0.1437251379628176	-3.627956067390817	0	-11.33859341670066	0	75.34654395264246	45.25243632321634	0	0	72.79909989102791	39.41069031438479	9.329471658317344	0.001637202340808808	45.25243632321634	0	0
5.18	-0.08904324328976493	-0.9669270978966031	147.6962207943923	0	0.9399999999999999	0	43.78050987640302	-9.940644056891852	0	59.85380728509892	1.044646006979145	-4.863550003142183	0	0	43.78050987640302	-9.940644056891852	0	59.85380728509892	1.044646006979145	-4.863550003142183	0	0	2.268083012779963	-0.08808571565859728	-3.628004676778628	0	-11.33944452422082	0	75.34638673653681	45.25211927257141	0	0	72.9971522978708	39.10861322469824	8.689694499682673	0.001625778134302352	45.25211927257141	0	0
5.19	-0.09349778563181947	-0.9668994402280098	147.6945378748476	0	0.9399999999999999	0	43.79216151439385	-9.942442492765347	0	59.85495273927601	1.044665998925965	-4.868765766831146	0	0	43.79216151439385	-9.942442492765347	0	59.85495273927601	1.044665998925965	-4.868765766831146	0	0	2.257735418104186	-0.05470922410305872	-3.636100664496378	0	-11.35788797817214	0	75.34307958536061	45.24592400461155	0	0	71.98541970080849	39.63416660036302	9.532768687919095	0.001632612287884884	45.24592400461155	0	0
5.2	-0.09423403777399347	-0.9818912181819113	147.6861407673719	0	0.9399999999999999	0	43.80481836049614	-9.944399630909057	0	59.8562032572279	1.044687824581581	-4.874441686559533	0	0	43.80481836049614	-9.944399630909057	0	59.8562032572279	1.044687824581581	-4.874441686559533	0	0	2.277082180853797	-0.08333729837255127	-3.624252772838805	0	-11.37794427628104	0	75.33948712388185	45.23918472714413	0	0	70.71380840334758	40.05112398897374	10.2635931699067	0.001643756896560008	45.23918472714413	0	0
5.21	-0.0791681854544711	-0.9783519380696196	147.7136318423886	0	0.9399999999999999	0	43.81479839671171	-9.945963034294145	0	59.85718444525172	1.044704949543178	-4.87897173410231	0	0	43.81479839671171	-9.945963034294145	0	59.85718444525172	1.044704949543178	-4.87897173410231	0	0	2.271721149121707	-0.05975913473192539	-3.671113574765017	0	-11.39360426494121	0	75.33665446032072	45.23380558297755	0	0	69.71293766974725	40.32016994862524	10.58035642757285	0.001650316641463631	45.23380558297755	0	0
5.22	-0.08525970707118397	-0.9921553302258082	147.6902995583347	0	0.9399999999999999	0	43.82496254752205	-9.947634243143817	0	59.85815305179101	1.044721854916445	-4.883826512221311	0	0	43.82496254752205	-9.947634243143817	0	59.85815305179101	1.044721854916445	-4.883826512221311	0	0	2.305351763671475	-0.0808065237215201	-3.609671996590809	0	-11.40897655496787	0	75.33376961656406	45.22808495873518	0	0	69.05422705673082	40.5233559236768	10.8012640615393	0.001649359743368015	45.22808495873518	0	0
5.23	-0.09732522110454193	-1.008292822328823	147.6920343795495	0	0.9399999999999999	0	43.83000299750633	-9.948530812850569	0	59.85862666350148	1.044730121000169	-4.886468678531907	0	0	43.83000299750633	-9.948530812850569	0	59.85862666350148	1.044730121000169	-4.886468678531907	0	0	2.308670107347635	-0.1263478829305144	-3.585760612732759	0	-11.41631407921785	0	75.33233906099139	45.22505876983801	0	0	68.77558805717923	40.60611568049684	10.26060807993281	0.00164207719281793	45.22505876983801	0	0
